<?xml version="1.0" encoding="UTF-8" standalone="no" ?>
<!DOCTYPE svg PUBLIC "-//W3C//DTD SVG 1.1//EN" "http://www.w3.org/Graphics/SVG/1.1/DTD/svg11.dtd">
<svg xmlns="http://www.w3.org/2000/svg" xmlns:xlink="http://www.w3.org/1999/xlink" version="1.1" width="791.8398590087891" height="117.47" xml:space="preserve">
<desc>Created with Fabric.js 1.6.0-rc.1</desc>
<defs></defs>
  <g transform="translate(441.92 58.91)">
   <text font-family="Gross" font-size="40" font-weight="normal" style="stroke: none; stroke-width: 1; stroke-dasharray: none; stroke-linecap: butt; stroke-linejoin: miter; stroke-miterlimit: 10; fill: #000000; fill-rule: nonzero; opacity: 1;" ><tspan x="-340.42" y="8.98" style="stroke: none; stroke-width: 0; stroke-dasharray: none; stroke-linecap: butt; stroke-linejoin: miter; stroke-miterlimit: 4; fill: #000000; fill-rule: ; opacity: 1;">M</tspan><tspan x="-301.74" y="8.98" style="stroke: none; stroke-width: 0; stroke-dasharray: none; stroke-linecap: butt; stroke-linejoin: miter; stroke-miterlimit: 4; fill: #000000; fill-rule: ; opacity: 1;">a</tspan><tspan x="-270.26" y="8.98" style="stroke: none; stroke-width: 0; stroke-dasharray: none; stroke-linecap: butt; stroke-linejoin: miter; stroke-miterlimit: 4; fill: #000000; fill-rule: ; opacity: 1;">x</tspan><tspan x="-246.74" y="8.98" style="stroke: none; stroke-width: 0; stroke-dasharray: none; stroke-linecap: butt; stroke-linejoin: miter; stroke-miterlimit: 4; fill: #000000; fill-rule: ; opacity: 1;">&apos;</tspan><tspan x="-232.26" y="8.98" style="stroke: none; stroke-width: 0; stroke-dasharray: none; stroke-linecap: butt; stroke-linejoin: miter; stroke-miterlimit: 4; fill: #000000; fill-rule: ; opacity: 1;">s</tspan><tspan x="-202.34" y="8.98" style="stroke: none; stroke-width: 0; stroke-dasharray: none; stroke-linecap: butt; stroke-linejoin: miter; stroke-miterlimit: 4; fill: #000000; fill-rule: ; opacity: 1;"> </tspan><tspan x="-187.54" y="8.98" style="stroke: none; stroke-width: 0; stroke-dasharray: none; stroke-linecap: butt; stroke-linejoin: miter; stroke-miterlimit: 4; fill: #000000; fill-rule: ; opacity: 1;">B</tspan><tspan x="-162.7" y="8.98" style="stroke: none; stroke-width: 0; stroke-dasharray: none; stroke-linecap: butt; stroke-linejoin: miter; stroke-miterlimit: 4; fill: #000000; fill-rule: ; opacity: 1;">a</tspan><tspan x="-131.22" y="8.98" style="stroke: none; stroke-width: 0; stroke-dasharray: none; stroke-linecap: butt; stroke-linejoin: miter; stroke-miterlimit: 4; fill: #000000; fill-rule: ; opacity: 1;">r</tspan><tspan x="-105.22" y="8.98" style="stroke: none; stroke-width: 0; stroke-dasharray: none; stroke-linecap: butt; stroke-linejoin: miter; stroke-miterlimit: 4; fill: #000000; fill-rule: ; opacity: 1;">b</tspan><tspan x="-80.38" y="8.98" style="stroke: none; stroke-width: 0; stroke-dasharray: none; stroke-linecap: butt; stroke-linejoin: miter; stroke-miterlimit: 4; fill: #000000; fill-rule: ; opacity: 1;">e</tspan><tspan x="-55.26" y="8.98" style="stroke: none; stroke-width: 0; stroke-dasharray: none; stroke-linecap: butt; stroke-linejoin: miter; stroke-miterlimit: 4; fill: #000000; fill-rule: ; opacity: 1;">r</tspan><tspan x="-29.26" y="8.98" style="stroke: none; stroke-width: 0; stroke-dasharray: none; stroke-linecap: butt; stroke-linejoin: miter; stroke-miterlimit: 4; fill: #000000; fill-rule: ; opacity: 1;"> </tspan><tspan x="-14.46" y="8.98" style="stroke: none; stroke-width: 0; stroke-dasharray: none; stroke-linecap: butt; stroke-linejoin: miter; stroke-miterlimit: 4; fill: #000000; fill-rule: ; opacity: 1;">a</tspan><tspan x="17.02" y="8.98" style="stroke: none; stroke-width: 0; stroke-dasharray: none; stroke-linecap: butt; stroke-linejoin: miter; stroke-miterlimit: 4; fill: #000000; fill-rule: ; opacity: 1;">n</tspan><tspan x="45.78" y="8.98" style="stroke: none; stroke-width: 0; stroke-dasharray: none; stroke-linecap: butt; stroke-linejoin: miter; stroke-miterlimit: 4; fill: #000000; fill-rule: ; opacity: 1;">d</tspan><tspan x="72.78" y="8.98" style="stroke: none; stroke-width: 0; stroke-dasharray: none; stroke-linecap: butt; stroke-linejoin: miter; stroke-miterlimit: 4; fill: #000000; fill-rule: ; opacity: 1;"> </tspan><tspan x="87.58" y="8.98" style="stroke: none; stroke-width: 0; stroke-dasharray: none; stroke-linecap: butt; stroke-linejoin: miter; stroke-miterlimit: 4; fill: #000000; fill-rule: ; opacity: 1;">H</tspan><tspan x="113.98" y="8.98" style="stroke: none; stroke-width: 0; stroke-dasharray: none; stroke-linecap: butt; stroke-linejoin: miter; stroke-miterlimit: 4; fill: #000000; fill-rule: ; opacity: 1;">a</tspan><tspan x="145.46" y="8.98" style="stroke: none; stroke-width: 0; stroke-dasharray: none; stroke-linecap: butt; stroke-linejoin: miter; stroke-miterlimit: 4; fill: #000000; fill-rule: ; opacity: 1;">i</tspan><tspan x="155.94" y="8.98" style="stroke: none; stroke-width: 0; stroke-dasharray: none; stroke-linecap: butt; stroke-linejoin: miter; stroke-miterlimit: 4; fill: #000000; fill-rule: ; opacity: 1;">r</tspan><tspan x="181.94" y="8.98" style="stroke: none; stroke-width: 0; stroke-dasharray: none; stroke-linecap: butt; stroke-linejoin: miter; stroke-miterlimit: 4; fill: #000000; fill-rule: ; opacity: 1;"> </tspan><tspan x="196.74" y="8.98" style="stroke: none; stroke-width: 0; stroke-dasharray: none; stroke-linecap: butt; stroke-linejoin: miter; stroke-miterlimit: 4; fill: #000000; fill-rule: ; opacity: 1;">A</tspan><tspan x="228.22" y="8.98" style="stroke: none; stroke-width: 0; stroke-dasharray: none; stroke-linecap: butt; stroke-linejoin: miter; stroke-miterlimit: 4; fill: #000000; fill-rule: ; opacity: 1;">f</tspan><tspan x="250.34" y="8.98" style="stroke: none; stroke-width: 0; stroke-dasharray: none; stroke-linecap: butt; stroke-linejoin: miter; stroke-miterlimit: 4; fill: #000000; fill-rule: ; opacity: 1;">f</tspan><tspan x="272.46" y="8.98" style="stroke: none; stroke-width: 0; stroke-dasharray: none; stroke-linecap: butt; stroke-linejoin: miter; stroke-miterlimit: 4; fill: #000000; fill-rule: ; opacity: 1;">a</tspan><tspan x="303.94" y="8.98" style="stroke: none; stroke-width: 0; stroke-dasharray: none; stroke-linecap: butt; stroke-linejoin: miter; stroke-miterlimit: 4; fill: #000000; fill-rule: ; opacity: 1;">i</tspan><tspan x="314.42" y="8.98" style="stroke: none; stroke-width: 0; stroke-dasharray: none; stroke-linecap: butt; stroke-linejoin: miter; stroke-miterlimit: 4; fill: #000000; fill-rule: ; opacity: 1;">r</tspan></text>
 </g>
<g style="stroke: none; stroke-width: 1; stroke-dasharray: none; stroke-linecap: butt; stroke-linejoin: miter; stroke-miterlimit: 10; fill: none; fill-rule: nonzero; opacity: 1;" transform="translate(10 10) scale(0.19 0.19)" >
  <path d="M 256.569 8.644 L 256.569 8.644 c -5.875 0 -11.556 0.808 -16.964 2.281 c -0.138 0.032 -0.284 0.052 -0.418 0.09 c -27.158 7.586 -47.08 32.512 -47.08 62.091 v 4.222 h 128.921 v -4.223 C 321.029 37.504 292.169 8.644 256.569 8.644 z" style="stroke: none; stroke-width: 1; stroke-dasharray: none; stroke-linecap: butt; stroke-linejoin: miter; stroke-miterlimit: 10; fill: #58595B; fill-rule: nonzero; opacity: 1;" transform=" matrix(1 0 0 1 0 0) " stroke-linecap="round" />
  <path d="M 192.108 435.8 v 3.291 c 0 29.578 19.922 54.503 47.079 62.091 c 0.246 0.068 0.489 0.12 0.732 0.172 c 5.314 1.42 10.888 2.199 16.649 2.199 l 0 0 c 35.601 0 64.461 -28.86 64.461 -64.461 v -3.291 h -128.92 V 435.8 z" style="stroke: none; stroke-width: 1; stroke-dasharray: none; stroke-linecap: butt; stroke-linejoin: miter; stroke-miterlimit: 10; fill: #58595B; fill-rule: nonzero; opacity: 1;" transform=" matrix(1 0 0 1 0 0) " stroke-linecap="round" />
  <polygon points="321.03,397.22 192.11,397.22 192.11,370.92 194.32,366.83 194.41,341.77 192.11,337.86 192.11,313.51 194.32,307.87 194.7,284.89 192.11,280.45 192.11,256.1 194.98,251.56 195.17,226.5 192.11,223.04 192.11,198.69 195.17,194.4 194.6,170.33 192.11,165.63 192.11,141.28 194.75,137.36 192.11,115.07 321.03,115.07 321.03,116.92 318.61,121.57 318.32,146.45 321.03,149.99 321.03,174.34 318.23,179.12 318.04,204.28 321.03,207.4 321.03,231.74 317.95,238.37 317.85,260.96 321.03,264.81 321.03,289.15 318.52,294.39 318.52,317.56 321.03,322.22 321.03,346.49 318.52,350.88 318.04,375.76 321.03,379.56 " style="stroke: none; stroke-width: 1; stroke-dasharray: none; stroke-linecap: butt; stroke-linejoin: miter; stroke-miterlimit: 10; fill: #E6E7E8; fill-rule: nonzero; opacity: 1;" transform="  matrix(1 0 0 1 0 0) "/>
  <polygon points="289.27,397.22 321.03,397.22 321.03,379.56 318.04,375.76 318.52,350.88 321.03,346.49 321.03,322.22 318.52,317.56 318.52,294.39 321.03,289.15 321.03,264.81 317.85,260.96 317.95,238.37 321.03,231.74 321.03,207.4 318.04,204.28 318.23,179.12 321.03,174.34 321.03,149.99 318.32,146.45 318.61,121.57 321.03,116.92 321.03,115.07 289.27,115.07 " style="stroke: none; stroke-width: 1; stroke-dasharray: none; stroke-linecap: butt; stroke-linejoin: miter; stroke-miterlimit: 10; fill: #D1D3D4; fill-rule: nonzero; opacity: 1;" transform="  matrix(1 0 0 1 0 0) "/>
  <path d="M 256.569 8.644 L 256.569 8.644 c -6.023 0 -11.847 0.844 -17.376 2.389 c 27.157 7.587 47.084 32.494 47.084 62.072 v 4.223 h 34.752 v -4.223 C 321.029 37.504 292.169 8.644 256.569 8.644 z" style="stroke: none; stroke-width: 1; stroke-dasharray: none; stroke-linecap: butt; stroke-linejoin: miter; stroke-miterlimit: 10; fill: #414042; fill-rule: nonzero; opacity: 1;" transform=" matrix(1 0 0 1 0 0) " stroke-linecap="round" />
  <polygon points="192.11,113.03 192.11,141.28 267.41,112.84 " style="stroke: none; stroke-width: 1; stroke-dasharray: none; stroke-linecap: butt; stroke-linejoin: miter; stroke-miterlimit: 10; fill: #ED4850; fill-rule: nonzero; opacity: 1;" transform="  matrix(1 0 0 1 0 0) "/>
  <path d="M 286.277 435.8 v 3.291 c 0 29.577 -19.928 54.485 -47.084 62.072 c 5.531 1.545 11.353 2.389 17.376 2.389 l 0 0 c 35.601 0 64.461 -28.86 64.461 -64.461 v -3.291 h -34.752 V 435.8 z" style="stroke: none; stroke-width: 1; stroke-dasharray: none; stroke-linecap: butt; stroke-linejoin: miter; stroke-miterlimit: 10; fill: #414042; fill-rule: nonzero; opacity: 1;" transform=" matrix(1 0 0 1 0 0) " stroke-linecap="round" />
  <path d="M 335.158 116.925 H 177.979 c -3.018 0 -5.465 -2.446 -5.465 -5.465 V 80.235 c 0 -3.018 2.446 -5.465 5.465 -5.465 h 157.178 c 3.018 0 5.465 2.446 5.465 5.465 v 31.225 C 340.623 114.478 338.175 116.925 335.158 116.925 z" style="stroke: none; stroke-width: 1; stroke-dasharray: none; stroke-linecap: butt; stroke-linejoin: miter; stroke-miterlimit: 10; fill: #D1D3D4; fill-rule: nonzero; opacity: 1;" transform=" matrix(1 0 0 1 0 0) " stroke-linecap="round" />
  <polygon points="321.03,346.5 192.11,395.2 192.11,428.26 321.03,379.56 " style="stroke: none; stroke-width: 1; stroke-dasharray: none; stroke-linecap: butt; stroke-linejoin: miter; stroke-miterlimit: 10; fill: #5A8EE8; fill-rule: nonzero; opacity: 1;" transform="  matrix(1 0 0 1 0 0) "/>
  <polygon points="321.03,116.92 192.11,165.63 192.11,198.69 321.03,149.99 " style="stroke: none; stroke-width: 1; stroke-dasharray: none; stroke-linecap: butt; stroke-linejoin: miter; stroke-miterlimit: 10; fill: #5A8EE8; fill-rule: nonzero; opacity: 1;" transform="  matrix(1 0 0 1 0 0) "/>
  <path d="M 335.158 437.426 H 177.979 c -3.018 0 -5.465 -2.446 -5.465 -5.465 v -31.226 c 0 -3.018 2.446 -5.465 5.465 -5.465 h 157.178 c 3.018 0 5.465 2.446 5.465 5.465 v 31.225 C 340.623 434.978 338.175 437.426 335.158 437.426 z" style="stroke: none; stroke-width: 1; stroke-dasharray: none; stroke-linecap: butt; stroke-linejoin: miter; stroke-miterlimit: 10; fill: #D1D3D4; fill-rule: nonzero; opacity: 1;" transform=" matrix(1 0 0 1 0 0) " stroke-linecap="round" />
  <path d="M 335.157 74.77 h -35.473 c 3.018 0 5.465 2.446 5.465 5.465 v 31.225 c 0 3.018 -2.446 5.465 -5.465 5.465 h 35.473 c 3.018 0 5.465 -2.446 5.465 -5.465 V 80.235 C 340.623 77.216 338.175 74.77 335.157 74.77 z" style="stroke: none; stroke-width: 1; stroke-dasharray: none; stroke-linecap: butt; stroke-linejoin: miter; stroke-miterlimit: 10; fill: #BCBEC0; fill-rule: nonzero; opacity: 1;" transform=" matrix(1 0 0 1 0 0) " stroke-linecap="round" />
  <path d="M 335.157 395.271 h -35.473 c 3.018 0 5.465 2.446 5.465 5.465 v 31.225 c 0 3.018 -2.446 5.465 -5.465 5.465 h 35.473 c 3.018 0 5.465 -2.446 5.465 -5.465 v -31.225 C 340.623 397.717 338.175 395.271 335.157 395.271 z" style="stroke: none; stroke-width: 1; stroke-dasharray: none; stroke-linecap: butt; stroke-linejoin: miter; stroke-miterlimit: 10; fill: #BCBEC0; fill-rule: nonzero; opacity: 1;" transform=" matrix(1 0 0 1 0 0) " stroke-linecap="round" />
  <polygon points="321.03,231.74 192.11,280.45 192.11,313.51 321.03,264.81 " style="stroke: none; stroke-width: 1; stroke-dasharray: none; stroke-linecap: butt; stroke-linejoin: miter; stroke-miterlimit: 10; fill: #5A8EE8; fill-rule: nonzero; opacity: 1;" transform="  matrix(1 0 0 1 0 0) "/>
  <polygon points="321.03,174.33 192.11,223.04 192.11,256.1 321.03,207.4 " style="stroke: none; stroke-width: 1; stroke-dasharray: none; stroke-linecap: butt; stroke-linejoin: miter; stroke-miterlimit: 10; fill: #ED4850; fill-rule: nonzero; opacity: 1;" transform="  matrix(1 0 0 1 0 0) "/>
  <polygon points="321.03,289.15 192.11,337.86 192.11,370.92 321.03,322.22 " style="stroke: none; stroke-width: 1; stroke-dasharray: none; stroke-linecap: butt; stroke-linejoin: miter; stroke-miterlimit: 10; fill: #ED4850; fill-rule: nonzero; opacity: 1;" transform="  matrix(1 0 0 1 0 0) "/>
  <path d="M 334.587 125.373 c 7.725 0 14.01 -6.285 14.01 -14.01 V 80.137 c 0 -7.725 -6.285 -14.01 -14.01 -14.01 h -5.91 c -1.455 -15.439 -7.781 -30.042 -18.184 -41.703 c -3.141 -3.522 -8.545 -3.831 -12.065 -0.688 c -3.522 3.141 -3.83 8.543 -0.688 12.065 c 7.602 8.523 12.364 19.098 13.751 30.326 H 200.503 c 3.403 -27.597 26.993 -49.035 55.496 -49.035 c 4.719 0 8.546 -3.826 8.546 -8.546 S 260.718 0 255.999 0 c -37.935 0 -69.193 29.086 -72.672 66.126 h -5.916 c -7.725 0 -14.01 6.285 -14.01 14.01 v 31.225 c 0 7.725 6.285 14.01 14.01 14.01 h 5.582 v 261.254 h -5.582 c -7.725 0 -14.01 6.285 -14.01 14.01 v 31.225 c 0 7.725 6.285 14.01 14.01 14.01 h 5.916 c 3.48 37.04 34.738 66.126 72.672 66.126 s 69.193 -29.086 72.672 -66.126 h 5.916 c 7.725 0 14.01 -6.285 14.01 -14.01 v -31.225 c 0 -7.725 -6.285 -14.01 -14.01 -14.01 h -5.582 V 125.373 H 334.587 z M 180.49 83.218 h 11.048 h 128.921 h 11.048 v 25.064 h -11.048 H 191.538 H 180.49 V 83.218 z M 200.084 286.26 l 111.83 -42.25 v 39.139 l -111.83 42.25 L 200.084 286.26 L 200.084 286.26 z M 311.914 225.739 l -111.83 42.25 V 228.85 l 111.83 -42.25 V 225.739 z M 255.999 494.909 c -28.503 0 -52.092 -21.438 -55.494 -49.035 h 110.988 C 308.091 473.47 284.5 494.909 255.999 494.909 z M 331.507 428.781 h -11.048 H 191.538 H 180.49 v -25.064 h 11.048 h 128.921 h 11.048 L 331.507 428.781 L 331.507 428.781 z M 200.084 386.627 V 343.67 l 111.83 -42.25 v 39.138 l -53.389 20.17 c -4.415 1.668 -6.642 6.6 -4.974 11.015 c 1.292 3.421 4.543 5.527 7.996 5.527 c 1.003 0 2.024 -0.178 3.018 -0.554 l 47.348 -17.888 v 27.797 h -111.83 V 386.627 z M 311.914 168.329 l -111.83 42.25 V 171.44 l 48.702 -18.399 c 4.415 -1.668 6.642 -6.6 4.974 -11.015 c -1.667 -4.414 -6.597 -6.643 -11.015 -4.974 l -42.661 16.117 v -27.797 h 111.83 V 168.329 z" style="stroke: none; stroke-width: 1; stroke-dasharray: none; stroke-linecap: butt; stroke-linejoin: miter; stroke-miterlimit: 10; fill: rgb(0,0,0); fill-rule: nonzero; opacity: 1;" transform=" matrix(1 0 0 1 0 0) " stroke-linecap="round" />
</g>
</svg>